<svg width="26" height="20" viewBox="0 0 26 20" fill="none" xmlns="http://www.w3.org/2000/svg">
<path d="M4.64286 5.45455C4.39658 5.45455 4.1604 5.55032 3.98626 5.72081C3.81212 5.8913 3.71429 6.12253 3.71429 6.36364C3.71429 6.60474 3.81212 6.83597 3.98626 7.00646C4.1604 7.17695 4.39658 7.27273 4.64286 7.27273H17.6429C17.8891 7.27273 18.1253 7.17695 18.2995 7.00646C18.4736 6.83597 18.5714 6.60474 18.5714 6.36364C18.5714 6.12253 18.4736 5.8913 18.2995 5.72081C18.1253 5.55032 17.8891 5.45455 17.6429 5.45455H4.64286ZM4.64286 9.09091C4.39658 9.09091 4.1604 9.18669 3.98626 9.35718C3.81212 9.52766 3.71429 9.75889 3.71429 10V13.6364C3.71429 13.8775 3.81212 14.1087 3.98626 14.2792C4.1604 14.4497 4.39658 14.5455 4.64286 14.5455H8.35714C8.60342 14.5455 8.8396 14.4497 9.01374 14.2792C9.18788 14.1087 9.28571 13.8775 9.28571 13.6364V10C9.28571 9.75889 9.18788 9.52766 9.01374 9.35718C8.8396 9.18669 8.60342 9.09091 8.35714 9.09091H4.64286ZM5.57143 12.7273V10.9091H7.42857V12.7273H5.57143ZM12.0714 9.09091C11.8252 9.09091 11.589 9.18669 11.4148 9.35718C11.2407 9.52766 11.1429 9.75889 11.1429 10C11.1429 10.2411 11.2407 10.4723 11.4148 10.6428C11.589 10.8133 11.8252 10.9091 12.0714 10.9091H17.6429C17.8891 10.9091 18.1253 10.8133 18.2995 10.6428C18.4736 10.4723 18.5714 10.2411 18.5714 10C18.5714 9.75889 18.4736 9.52766 18.2995 9.35718C18.1253 9.18669 17.8891 9.09091 17.6429 9.09091H12.0714ZM12.0714 12.7273C11.8252 12.7273 11.589 12.8231 11.4148 12.9935C11.2407 13.164 11.1429 13.3953 11.1429 13.6364C11.1429 13.8775 11.2407 14.1087 11.4148 14.2792C11.589 14.4497 11.8252 14.5455 12.0714 14.5455H17.6429C17.8891 14.5455 18.1253 14.4497 18.2995 14.2792C18.4736 14.1087 18.5714 13.8775 18.5714 13.6364C18.5714 13.3953 18.4736 13.164 18.2995 12.9935C18.1253 12.8231 17.8891 12.7273 17.6429 12.7273H12.0714ZM0 3.63636C0 2.67194 0.391325 1.74702 1.08789 1.06507C1.78445 0.383116 2.7292 0 3.71429 0H18.5714C19.5565 0 20.5013 0.383116 21.1978 1.06507C21.8944 1.74702 22.2857 2.67194 22.2857 3.63636C23.2708 3.63636 24.2155 4.01948 24.9121 4.70143C25.6087 5.38338 26 6.3083 26 7.27273V15.4545C26 16.6601 25.5108 17.8162 24.6401 18.6687C23.7694 19.5211 22.5885 20 21.3571 20H4.64286C3.41149 20 2.23057 19.5211 1.35986 18.6687C0.489157 17.8162 0 16.6601 0 15.4545V3.63636ZM21.3571 15.4545C21.1109 15.4545 20.8747 15.3588 20.7005 15.1883C20.5264 15.0178 20.4286 14.7866 20.4286 14.5455V3.63636C20.4286 3.15415 20.2329 2.69169 19.8846 2.35071C19.5363 2.00974 19.064 1.81818 18.5714 1.81818H3.71429C3.22174 1.81818 2.74937 2.00974 2.40109 2.35071C2.05281 2.69169 1.85714 3.15415 1.85714 3.63636V15.4545C1.85714 16.1779 2.15064 16.8716 2.67306 17.383C3.19548 17.8945 3.90404 18.1818 4.64286 18.1818H21.3571C22.096 18.1818 22.8045 17.8945 23.3269 17.383C23.8494 16.8716 24.1429 16.1779 24.1429 15.4545V7.27273C24.1429 6.79052 23.9472 6.32805 23.5989 5.98708C23.2506 5.6461 22.7783 5.45455 22.2857 5.45455V14.5455C22.2857 14.7866 22.1879 15.0178 22.0137 15.1883C21.8396 15.3588 21.6034 15.4545 21.3571 15.4545Z" fill="#073C64"/>
</svg>
