<svg width="148" height="50" viewBox="0 0 148 50" fill="none" xmlns="http://www.w3.org/2000/svg">
<rect x="13" y="3" width="135" height="42" rx="21" fill="url(#paint0_linear_249_19)"/>
<rect x="14" y="2" width="133" height="44" rx="22" stroke="white" stroke-width="2"/>
<path d="M68.2159 17.3636C68.2159 18.1473 68.0691 18.8184 67.7756 19.3771C67.4844 19.9335 67.0866 20.3596 66.5824 20.6555C66.0805 20.9515 65.5111 21.0994 64.8743 21.0994C64.2375 21.0994 63.6669 20.9515 63.1626 20.6555C62.6607 20.3572 62.263 19.9299 61.9695 19.3736C61.6783 18.8149 61.5327 18.1449 61.5327 17.3636C61.5327 16.58 61.6783 15.91 61.9695 15.3537C62.263 14.795 62.6607 14.3677 63.1626 14.0717C63.6669 13.7758 64.2375 13.6278 64.8743 13.6278C65.5111 13.6278 66.0805 13.7758 66.5824 14.0717C67.0866 14.3677 67.4844 14.795 67.7756 15.3537C68.0691 15.91 68.2159 16.58 68.2159 17.3636ZM66.8913 17.3636C66.8913 16.812 66.8049 16.3468 66.6321 15.968C66.4616 15.5869 66.2249 15.2992 65.9219 15.1051C65.6188 14.9086 65.2696 14.8104 64.8743 14.8104C64.4789 14.8104 64.1297 14.9086 63.8267 15.1051C63.5237 15.2992 63.2857 15.5869 63.1129 15.968C62.9425 16.3468 62.8572 16.812 62.8572 17.3636C62.8572 17.9152 62.9425 18.3816 63.1129 18.7628C63.2857 19.1416 63.5237 19.4292 63.8267 19.6257C64.1297 19.8198 64.4789 19.9169 64.8743 19.9169C65.2696 19.9169 65.6188 19.8198 65.9219 19.6257C66.2249 19.4292 66.4616 19.1416 66.6321 18.7628C66.8049 18.3816 66.8913 17.9152 66.8913 17.3636ZM70.6902 17.804V21H69.4047V15.5455H70.6333V16.4723H70.6973C70.8227 16.1669 71.0228 15.9242 71.2974 15.7443C71.5744 15.5644 71.9165 15.4744 72.3237 15.4744C72.7001 15.4744 73.028 15.5549 73.3074 15.7159C73.5891 15.8769 73.8069 16.1101 73.9608 16.4155C74.117 16.7209 74.194 17.0914 74.1916 17.527V21H72.9061V17.7259C72.9061 17.3613 72.8114 17.076 72.622 16.87C72.435 16.6641 72.1757 16.5611 71.8443 16.5611C71.6194 16.5611 71.4193 16.6108 71.2441 16.7102C71.0713 16.8073 70.9352 16.9482 70.8358 17.1328C70.7387 17.3175 70.6902 17.5412 70.6902 17.804ZM76.7839 13.7273V21H75.4984V13.7273H76.7839ZM78.1058 21V15.5455H79.3913V21H78.1058ZM78.7521 14.7713C78.5485 14.7713 78.3733 14.7038 78.2266 14.5689C78.0798 14.4316 78.0064 14.267 78.0064 14.0753C78.0064 13.8812 78.0798 13.7166 78.2266 13.5817C78.3733 13.4444 78.5485 13.3757 78.7521 13.3757C78.9581 13.3757 79.1333 13.4444 79.2777 13.5817C79.4245 13.7166 79.4979 13.8812 79.4979 14.0753C79.4979 14.267 79.4245 14.4316 79.2777 14.5689C79.1333 14.7038 78.9581 14.7713 78.7521 14.7713ZM81.9988 17.804V21H80.7132V15.5455H81.9419V16.4723H82.0059C82.1313 16.1669 82.3314 15.9242 82.606 15.7443C82.883 15.5644 83.2251 15.4744 83.6323 15.4744C84.0087 15.4744 84.3366 15.5549 84.6159 15.7159C84.8977 15.8769 85.1155 16.1101 85.2694 16.4155C85.4256 16.7209 85.5025 17.0914 85.5002 17.527V21H84.2147V17.7259C84.2147 17.3613 84.12 17.076 83.9306 16.87C83.7435 16.6641 83.4843 16.5611 83.1529 16.5611C82.928 16.5611 82.7279 16.6108 82.5527 16.7102C82.3799 16.8073 82.2438 16.9482 82.1444 17.1328C82.0473 17.3175 81.9988 17.5412 81.9988 17.804ZM89.2218 21.1065C88.6749 21.1065 88.2026 20.9929 87.8049 20.7656C87.4095 20.536 87.1053 20.2116 86.8922 19.7926C86.6792 19.3712 86.5726 18.8752 86.5726 18.3047C86.5726 17.7436 86.6792 17.2512 86.8922 16.8274C87.1077 16.4013 87.4083 16.0698 87.7942 15.8331C88.1801 15.594 88.6335 15.4744 89.1543 15.4744C89.4905 15.4744 89.8077 15.5289 90.106 15.6378C90.4067 15.7443 90.6718 15.91 90.9015 16.1349C91.1335 16.3598 91.3158 16.6463 91.4483 16.9943C91.5809 17.34 91.6472 17.7519 91.6472 18.2301V18.6243H87.1763V17.7578H90.415C90.4126 17.5116 90.3593 17.2926 90.2551 17.1009C90.151 16.9067 90.0054 16.754 89.8184 16.6428C89.6337 16.5315 89.4183 16.4759 89.1721 16.4759C88.9093 16.4759 88.6784 16.5398 88.4796 16.6676C88.2807 16.7931 88.1257 16.9588 88.0144 17.1648C87.9055 17.3684 87.8498 17.5921 87.8475 17.8359V18.5923C87.8475 18.9096 87.9055 19.1818 88.0215 19.4091C88.1375 19.634 88.2997 19.8068 88.508 19.9276C88.7163 20.0459 88.9602 20.1051 89.2395 20.1051C89.4266 20.1051 89.5958 20.0791 89.7473 20.027C89.8989 19.9725 90.0302 19.8932 90.1415 19.7891C90.2528 19.6849 90.3368 19.5559 90.3936 19.402L91.5939 19.5369C91.5182 19.8542 91.3738 20.1312 91.1607 20.3679C90.95 20.6023 90.6801 20.7846 90.351 20.9148C90.022 21.0426 89.6455 21.1065 89.2218 21.1065Z" fill="white"/>
<path d="M61.7173 34V26.7273H64.4446C65.0033 26.7273 65.4721 26.8243 65.8509 27.0185C66.232 27.2126 66.5196 27.4848 66.7138 27.8352C66.9103 28.1832 67.0085 28.5893 67.0085 29.0533C67.0085 29.5196 66.9091 29.9245 66.7102 30.2678C66.5137 30.6087 66.2237 30.8726 65.8402 31.0597C65.4567 31.2443 64.9856 31.3366 64.4268 31.3366H62.4844V30.2429H64.2493C64.576 30.2429 64.8435 30.1979 65.0518 30.108C65.2602 30.0156 65.4141 29.8819 65.5135 29.7067C65.6153 29.5291 65.6662 29.3113 65.6662 29.0533C65.6662 28.7952 65.6153 28.575 65.5135 28.3928C65.4117 28.2081 65.2566 28.0684 65.0483 27.9737C64.84 27.8767 64.5713 27.8281 64.2422 27.8281H63.0348V34H61.7173ZM65.4744 30.7045L67.2749 34H65.8047L64.0362 30.7045H65.4744ZM70.5011 34.1065C69.9542 34.1065 69.4819 33.9929 69.0842 33.7656C68.6888 33.536 68.3846 33.2116 68.1715 32.7926C67.9585 32.3712 67.8519 31.8752 67.8519 31.3047C67.8519 30.7436 67.9585 30.2512 68.1715 29.8274C68.387 29.4013 68.6876 29.0698 69.0735 28.8331C69.4594 28.594 69.9128 28.4744 70.4336 28.4744C70.7698 28.4744 71.087 28.5289 71.3853 28.6378C71.686 28.7443 71.9511 28.91 72.1808 29.1349C72.4128 29.3598 72.5951 29.6463 72.7276 29.9943C72.8602 30.34 72.9265 30.7519 72.9265 31.2301V31.6243H68.4556V30.7578H71.6942C71.6919 30.5116 71.6386 30.2926 71.5344 30.1009C71.4303 29.9067 71.2847 29.754 71.0977 29.6428C70.913 29.5315 70.6976 29.4759 70.4513 29.4759C70.1886 29.4759 69.9577 29.5398 69.7589 29.6676C69.56 29.7931 69.4049 29.9588 69.2937 30.1648C69.1848 30.3684 69.1291 30.5921 69.1268 30.8359V31.5923C69.1268 31.9096 69.1848 32.1818 69.3008 32.4091C69.4168 32.634 69.579 32.8068 69.7873 32.9276C69.9956 33.0459 70.2395 33.1051 70.5188 33.1051C70.7058 33.1051 70.8751 33.0791 71.0266 33.027C71.1781 32.9725 71.3095 32.8932 71.4208 32.7891C71.5321 32.6849 71.6161 32.5559 71.6729 32.402L72.8732 32.5369C72.7975 32.8542 72.6531 33.1312 72.44 33.3679C72.2293 33.6023 71.9594 33.7846 71.6303 33.9148C71.3013 34.0426 70.9248 34.1065 70.5011 34.1065ZM76.3862 36.1591C75.9245 36.1591 75.528 36.0964 75.1966 35.9709C74.8651 35.8478 74.5988 35.6821 74.3975 35.4737C74.1963 35.2654 74.0566 35.0346 73.9785 34.7812L75.1362 34.5007C75.1883 34.6072 75.264 34.7126 75.3635 34.8168C75.4629 34.9233 75.5967 35.0109 75.7647 35.0795C75.9352 35.1506 76.1494 35.1861 76.4075 35.1861C76.7721 35.1861 77.0739 35.0973 77.313 34.9197C77.5521 34.7446 77.6717 34.4557 77.6717 34.0533V33.0199H77.6078C77.5415 33.1525 77.4444 33.2886 77.3166 33.4283C77.1911 33.5679 77.0242 33.6851 76.8159 33.7798C76.6099 33.8745 76.3507 33.9219 76.0382 33.9219C75.6191 33.9219 75.2392 33.8236 74.8983 33.6271C74.5597 33.4283 74.2898 33.1323 74.0886 32.7393C73.8897 32.344 73.7903 31.8492 73.7903 31.255C73.7903 30.656 73.8897 30.1506 74.0886 29.7386C74.2898 29.3243 74.5609 29.0107 74.9018 28.7976C75.2427 28.5821 75.6227 28.4744 76.0417 28.4744C76.3613 28.4744 76.6241 28.5289 76.8301 28.6378C77.0384 28.7443 77.2041 28.8733 77.3272 29.0249C77.4503 29.174 77.5439 29.3149 77.6078 29.4474H77.6788V28.5455H78.9466V34.0888C78.9466 34.5552 78.8353 34.9411 78.6127 35.2464C78.3902 35.5518 78.086 35.7803 77.7001 35.9318C77.3142 36.0833 76.8762 36.1591 76.3862 36.1591ZM76.3968 32.9134C76.6691 32.9134 76.9011 32.8471 77.0929 32.7145C77.2846 32.5819 77.4302 32.3913 77.5297 32.1428C77.6291 31.8942 77.6788 31.5959 77.6788 31.2479C77.6788 30.9046 77.6291 30.6039 77.5297 30.3459C77.4326 30.0878 77.2882 29.8878 77.0964 29.7457C76.907 29.6013 76.6738 29.5291 76.3968 29.5291C76.1104 29.5291 75.8713 29.6037 75.6795 29.7528C75.4877 29.902 75.3433 30.1068 75.2463 30.3672C75.1492 30.6252 75.1007 30.9188 75.1007 31.2479C75.1007 31.5817 75.1492 31.8741 75.2463 32.125C75.3457 32.3736 75.4913 32.5677 75.6831 32.7074C75.8772 32.8447 76.1151 32.9134 76.3968 32.9134ZM80.264 34V28.5455H81.5495V34H80.264ZM80.9103 27.7713C80.7067 27.7713 80.5315 27.7038 80.3848 27.5689C80.238 27.4316 80.1646 27.267 80.1646 27.0753C80.1646 26.8812 80.238 26.7166 80.3848 26.5817C80.5315 26.4444 80.7067 26.3757 80.9103 26.3757C81.1163 26.3757 81.2915 26.4444 81.4359 26.5817C81.5827 26.7166 81.6561 26.8812 81.6561 27.0753C81.6561 27.267 81.5827 27.4316 81.4359 27.5689C81.2915 27.7038 81.1163 27.7713 80.9103 27.7713ZM87.1825 29.9872L86.0107 30.1151C85.9775 29.9967 85.9195 29.8854 85.8366 29.7812C85.7562 29.6771 85.6473 29.593 85.5099 29.5291C85.3726 29.4652 85.2045 29.4332 85.0057 29.4332C84.7382 29.4332 84.5133 29.4912 84.331 29.6072C84.151 29.7232 84.0623 29.8736 84.0646 30.0582C84.0623 30.2169 84.1203 30.3459 84.2386 30.4453C84.3594 30.5447 84.5582 30.6264 84.8352 30.6903L85.7656 30.8892C86.2817 31.0005 86.6652 31.1768 86.9162 31.4183C87.1695 31.6598 87.2973 31.9759 87.2997 32.3665C87.2973 32.7098 87.1967 33.0128 86.9979 33.2756C86.8014 33.536 86.5279 33.7396 86.1776 33.8864C85.8272 34.0331 85.4247 34.1065 84.9702 34.1065C84.3026 34.1065 83.7652 33.9669 83.358 33.6875C82.9508 33.4058 82.7081 33.014 82.63 32.5121L83.8835 32.3913C83.9403 32.6375 84.0611 32.8234 84.2457 32.9489C84.4304 33.0743 84.6707 33.1371 84.9666 33.1371C85.272 33.1371 85.517 33.0743 85.7017 32.9489C85.8887 32.8234 85.9822 32.6683 85.9822 32.4837C85.9822 32.3274 85.9219 32.1984 85.8011 32.0966C85.6828 31.9948 85.4981 31.9167 85.2472 31.8622L84.3168 31.6669C83.7936 31.558 83.4065 31.3745 83.1555 31.1165C82.9046 30.8561 82.7803 30.527 82.7827 30.1293C82.7803 29.7931 82.8714 29.5019 83.0561 29.2557C83.2431 29.0071 83.5024 28.8153 83.8338 28.6804C84.1676 28.5431 84.5523 28.4744 84.9879 28.4744C85.6271 28.4744 86.1302 28.6106 86.4972 28.8828C86.8665 29.1551 87.0949 29.5232 87.1825 29.9872ZM91.0835 28.5455V29.5398H87.9478V28.5455H91.0835ZM88.7219 27.2386H90.0075V32.3594C90.0075 32.5322 90.0335 32.6648 90.0856 32.7571C90.14 32.8471 90.2111 32.9086 90.2987 32.9418C90.3862 32.9749 90.4833 32.9915 90.5898 32.9915C90.6703 32.9915 90.7437 32.9856 90.81 32.9737C90.8787 32.9619 90.9308 32.9512 90.9663 32.9418L91.1829 33.9467C91.1142 33.9704 91.016 33.9964 90.8881 34.0249C90.7627 34.0533 90.6088 34.0698 90.4265 34.0746C90.1045 34.084 89.8145 34.0355 89.5565 33.929C89.2984 33.8201 89.0936 33.652 88.9421 33.4247C88.793 33.1974 88.7196 32.9134 88.7219 32.5724V27.2386ZM92.1586 34V28.5455H93.405V29.4545H93.4618C93.5613 29.1397 93.7317 28.897 93.9732 28.7266C94.217 28.5537 94.4952 28.4673 94.8077 28.4673C94.8787 28.4673 94.958 28.4709 95.0456 28.478C95.1356 28.4827 95.2102 28.491 95.2694 28.5028V29.6854C95.2149 29.6664 95.1285 29.6499 95.0101 29.6357C94.8941 29.6191 94.7817 29.6108 94.6728 29.6108C94.4384 29.6108 94.2277 29.6617 94.0407 29.7635C93.856 29.8629 93.7104 30.0014 93.6039 30.179C93.4973 30.3565 93.4441 30.5613 93.4441 30.7933V34H92.1586ZM97.5953 34.1101C97.2497 34.1101 96.9384 34.0485 96.6614 33.9254C96.3868 33.8 96.169 33.6153 96.008 33.3714C95.8494 33.1276 95.7701 32.8269 95.7701 32.4695C95.7701 32.1617 95.8269 31.9072 95.9405 31.706C96.0542 31.5047 96.2092 31.3438 96.4057 31.223C96.6022 31.1023 96.8236 31.0111 97.0698 30.9496C97.3184 30.8857 97.5752 30.8395 97.8404 30.8111C98.16 30.7779 98.4192 30.7483 98.6181 30.7223C98.8169 30.6939 98.9614 30.6513 99.0513 30.5945C99.1436 30.5353 99.1898 30.4441 99.1898 30.321V30.2997C99.1898 30.0322 99.1105 29.825 98.9519 29.6783C98.7933 29.5315 98.5648 29.4581 98.2665 29.4581C97.9516 29.4581 97.7019 29.5268 97.5172 29.6641C97.3349 29.8014 97.2118 29.9635 97.1479 30.1506L95.9476 29.9801C96.0423 29.6487 96.1986 29.3717 96.4164 29.1491C96.6342 28.9242 96.9005 28.7562 97.2154 28.6449C97.5302 28.5312 97.8783 28.4744 98.2594 28.4744C98.5222 28.4744 98.7838 28.5052 99.0442 28.5668C99.3046 28.6283 99.5426 28.7301 99.758 28.8722C99.9734 29.0118 100.146 29.2024 100.276 29.4439C100.409 29.6854 100.475 29.9872 100.475 30.3494V34H99.2395V33.2507H99.1969C99.1188 33.4022 99.0087 33.5443 98.8667 33.6768C98.727 33.8071 98.5506 33.9124 98.3375 33.9929C98.1268 34.071 97.8794 34.1101 97.5953 34.1101ZM97.9292 33.1655C98.1872 33.1655 98.4109 33.1146 98.6003 33.0128C98.7897 32.9086 98.9353 32.7713 99.0371 32.6009C99.1413 32.4304 99.1934 32.2446 99.1934 32.0433V31.4006C99.1531 31.4337 99.0845 31.4645 98.9874 31.4929C98.8927 31.5213 98.7862 31.5462 98.6678 31.5675C98.5494 31.5888 98.4322 31.6077 98.3162 31.6243C98.2002 31.6409 98.0996 31.6551 98.0144 31.6669C97.8226 31.6929 97.651 31.7356 97.4995 31.7947C97.348 31.8539 97.2284 31.9368 97.1408 32.0433C97.0532 32.1475 97.0094 32.2824 97.0094 32.4482C97.0094 32.6849 97.0958 32.8636 97.2686 32.9844C97.4415 33.1051 97.6616 33.1655 97.9292 33.1655ZM104.492 28.5455V29.5398H101.356V28.5455H104.492ZM102.13 27.2386H103.416V32.3594C103.416 32.5322 103.442 32.6648 103.494 32.7571C103.548 32.8471 103.619 32.9086 103.707 32.9418C103.794 32.9749 103.892 32.9915 103.998 32.9915C104.079 32.9915 104.152 32.9856 104.218 32.9737C104.287 32.9619 104.339 32.9512 104.374 32.9418L104.591 33.9467C104.522 33.9704 104.424 33.9964 104.296 34.0249C104.171 34.0533 104.017 34.0698 103.835 34.0746C103.513 34.084 103.223 34.0355 102.965 33.929C102.707 33.8201 102.502 33.652 102.35 33.4247C102.201 33.1974 102.128 32.9134 102.13 32.5724V27.2386ZM105.567 34V28.5455H106.852V34H105.567ZM106.213 27.7713C106.009 27.7713 105.834 27.7038 105.688 27.5689C105.541 27.4316 105.467 27.267 105.467 27.0753C105.467 26.8812 105.541 26.7166 105.688 26.5817C105.834 26.4444 106.009 26.3757 106.213 26.3757C106.419 26.3757 106.594 26.4444 106.739 26.5817C106.885 26.7166 106.959 26.8812 106.959 27.0753C106.959 27.267 106.885 27.4316 106.739 27.5689C106.594 27.7038 106.419 27.7713 106.213 27.7713ZM110.553 34.1065C110.021 34.1065 109.559 33.9893 109.169 33.755C108.778 33.5206 108.475 33.1927 108.259 32.7713C108.046 32.3499 107.94 31.8575 107.94 31.294C107.94 30.7306 108.046 30.237 108.259 29.8132C108.475 29.3894 108.778 29.0604 109.169 28.826C109.559 28.5916 110.021 28.4744 110.553 28.4744C111.086 28.4744 111.548 28.5916 111.938 28.826C112.329 29.0604 112.631 29.3894 112.844 29.8132C113.059 30.237 113.167 30.7306 113.167 31.294C113.167 31.8575 113.059 32.3499 112.844 32.7713C112.631 33.1927 112.329 33.5206 111.938 33.755C111.548 33.9893 111.086 34.1065 110.553 34.1065ZM110.561 33.0767C110.849 33.0767 111.091 32.9974 111.285 32.8388C111.479 32.6778 111.624 32.4624 111.718 32.1925C111.815 31.9226 111.864 31.6219 111.864 31.2905C111.864 30.9567 111.815 30.6548 111.718 30.3849C111.624 30.1127 111.479 29.8961 111.285 29.7351C111.091 29.5741 110.849 29.4936 110.561 29.4936C110.265 29.4936 110.018 29.5741 109.822 29.7351C109.628 29.8961 109.482 30.1127 109.385 30.3849C109.29 30.6548 109.243 30.9567 109.243 31.2905C109.243 31.6219 109.29 31.9226 109.385 32.1925C109.482 32.4624 109.628 32.6778 109.822 32.8388C110.018 32.9974 110.265 33.0767 110.561 33.0767ZM115.544 30.804V34H114.258V28.5455H115.487V29.4723H115.551C115.676 29.1669 115.876 28.9242 116.151 28.7443C116.428 28.5644 116.77 28.4744 117.177 28.4744C117.554 28.4744 117.882 28.5549 118.161 28.7159C118.443 28.8769 118.66 29.1101 118.814 29.4155C118.971 29.7209 119.047 30.0914 119.045 30.527V34H117.76V30.7259C117.76 30.3613 117.665 30.076 117.475 29.87C117.288 29.6641 117.029 29.5611 116.698 29.5611C116.473 29.5611 116.273 29.6108 116.098 29.7102C115.925 29.8073 115.789 29.9482 115.689 30.1328C115.592 30.3175 115.544 30.5412 115.544 30.804Z" fill="white"/>
<circle cx="25" cy="25" r="24.5" fill="white" stroke="white"/>
<path d="M41.3774 41.3759C50.405 32.3463 50.405 17.652 41.3774 8.62236C32.3474 -0.404963 17.6548 -0.404963 8.62255 8.62236C-0.405109 17.652 -0.405109 32.3463 8.62255 41.3759C17.6548 50.4056 32.3474 50.4056 41.3774 41.3759ZM16.8141 16.8113H33.1881L26.6385 23.363L34.8255 31.5519L31.5507 34.8266L23.3637 26.6376L16.8141 33.1893V16.8113V16.8113Z" fill="url(#paint1_linear_249_19)"/>
<defs>
<linearGradient id="paint0_linear_249_19" x1="80.5" y1="3" x2="80.5" y2="45" gradientUnits="userSpaceOnUse">
<stop stop-color="#55ACEE"/>
<stop offset="1" stop-color="#1E97F3"/>
</linearGradient>
<linearGradient id="paint1_linear_249_19" x1="25" y1="1.85187" x2="25" y2="48.1482" gradientUnits="userSpaceOnUse">
<stop stop-color="#1E97F3"/>
<stop offset="1" stop-color="#55ACEE"/>
</linearGradient>
</defs>
</svg>
