<svg width="25" height="25" viewBox="0 0 25 25" fill="none" xmlns="http://www.w3.org/2000/svg">
<g clip-path="url(#clip0_153_10875)">
<path d="M6.60778 21.4115L7.01647 21.6135C8.7196 22.6235 10.6269 23.0948 12.5343 23.0948C18.529 23.0948 23.4337 18.2469 23.4337 12.3217C23.4337 9.49382 22.2756 6.7332 20.232 4.71322C18.1883 2.69324 15.4634 1.54865 12.5343 1.54865C6.53972 1.54865 1.63493 6.39652 1.70309 12.3891C1.70309 14.409 2.31618 16.3617 3.33796 18.0449L3.61042 18.4489L2.52058 22.4215L6.60778 21.4115Z" fill="#00E676"/>
<path d="M21.3899 3.63591C19.0738 1.27934 15.8722 0 12.6023 0C5.6541 0 0.0681641 5.58851 0.13623 12.389C0.13623 14.5436 0.749316 16.631 1.77119 18.5162L0 24.9127L6.60772 23.2294C8.44697 24.2395 10.4905 24.7108 12.5343 24.7108C19.4145 24.7108 25.0004 19.1222 25.0004 12.3218C25.0004 9.02249 23.7061 5.92519 21.39 3.63591H21.3899ZM12.6023 22.6236C10.7631 22.6236 8.92383 22.1523 7.35703 21.2097L6.94834 21.0076L2.99736 22.0176L4.01914 18.1797L3.74668 17.7757C0.749316 12.9952 2.17988 6.66583 7.08457 3.70319C11.9893 0.740637 18.3245 2.15463 21.3219 7.00251C24.3191 11.8504 22.8886 18.1123 17.984 21.0749C16.4171 22.0848 14.5098 22.6235 12.6023 22.6235V22.6236ZM18.597 15.1498L17.8477 14.8131C17.8477 14.8131 16.7578 14.3418 16.0766 14.0051C16.0084 14.0051 15.9403 13.9377 15.8722 13.9377C15.6678 13.9377 15.5315 14.0051 15.3953 14.0725C15.3953 14.0725 15.3272 14.1398 14.3735 15.2171C14.3054 15.3517 14.1691 15.4191 14.0329 15.4191H13.9647C13.8967 15.4191 13.7604 15.3517 13.6923 15.2845L13.3517 15.1498C12.6023 14.8131 11.9212 14.4091 11.3762 13.8705C11.2399 13.7358 11.0355 13.6012 10.8993 13.4665C10.4225 12.9952 9.94561 12.4565 9.60508 11.8505L9.53691 11.7158C9.46885 11.6485 9.46885 11.5812 9.40068 11.4465C9.40068 11.3119 9.40068 11.1772 9.46885 11.1098C9.46885 11.1098 9.74131 10.7732 9.94561 10.5712C10.0819 10.4365 10.15 10.2346 10.2862 10.0999C10.4225 9.89788 10.4906 9.62857 10.4225 9.42654C10.3544 9.08986 9.53691 7.27191 9.33262 6.86795C9.19629 6.66593 9.06016 6.59865 8.85576 6.53127H8.10645C7.97012 6.53127 7.83398 6.59865 7.69766 6.59865L7.62949 6.66593C7.49326 6.7333 7.35703 6.86795 7.2208 6.93523C7.08457 7.06998 7.01641 7.20454 6.88018 7.33929C6.40332 7.94527 6.13086 8.68591 6.13086 9.42654C6.13086 9.96515 6.26709 10.5039 6.47148 10.9752L6.53965 11.1772C7.15273 12.4565 7.97012 13.6012 9.06016 14.6111L9.33262 14.8804C9.53691 15.0824 9.74131 15.2171 9.87754 15.419C11.3081 16.6311 12.943 17.5064 14.7822 17.9777C14.9866 18.045 15.2591 18.045 15.4635 18.1124H16.1446C16.4853 18.1124 16.8939 17.9777 17.1665 17.843C17.3708 17.7084 17.507 17.7084 17.6433 17.5737L17.7796 17.439C17.9158 17.3043 18.0521 17.2371 18.1883 17.1024C18.3245 16.9678 18.4607 16.8331 18.5289 16.6984C18.6651 16.4291 18.7332 16.0924 18.8014 15.7558V15.2845C18.8014 15.2845 18.7332 15.2171 18.597 15.1498V15.1498Z" fill="white"/>
</g>
<defs>
<clipPath id="clip0_153_10875">
<rect width="25" height="25" fill="white"/>
</clipPath>
</defs>
</svg>
