<svg width="70" height="48" viewBox="0 0 70 48" fill="none" xmlns="http://www.w3.org/2000/svg">
<g clip-path="url(#clip0_240_10)">
<path d="M68.4538 7.48667C68.0523 6.03961 67.2691 4.72038 66.1822 3.66034C65.0953 2.6003 63.7426 1.83643 62.2588 1.4448C56.8267 0 34.9643 0 34.9643 0C34.9643 0 13.1007 0.0437332 7.66864 1.48853C6.18483 1.88019 4.83211 2.6441 3.7452 3.70419C2.65829 4.76428 1.8751 6.08357 1.47364 7.53067C-0.169449 16.9435 -0.806832 31.2864 1.51875 40.3227C1.92026 41.7697 2.70347 43.0889 3.79038 44.149C4.87729 45.209 6.22998 45.9729 7.71375 46.3645C13.1459 47.8093 35.0088 47.8093 35.0088 47.8093C35.0088 47.8093 56.8715 47.8093 62.3034 46.3645C63.7872 45.9729 65.1399 45.2091 66.2269 44.149C67.3139 43.089 68.0971 41.7697 68.4986 40.3227C70.2317 30.8965 70.7657 16.5627 68.4538 7.48693V7.48667Z" fill="#FF0000"/>
<path d="M28.0059 34.1493L46.1424 23.9045L28.0059 13.6597V34.1493Z" fill="white"/>
</g>
<defs>
<clipPath id="clip0_240_10">
<rect width="70" height="48" fill="white"/>
</clipPath>
</defs>
</svg>
