<svg width="12" height="11" viewBox="0 0 12 11" fill="none" xmlns="http://www.w3.org/2000/svg">
<path d="M5.04311 10.4116C7.82835 10.4116 10.0862 8.0809 10.0862 5.20581C10.0862 2.33072 7.82835 0 5.04311 0C2.25788 0 0 2.33072 0 5.20581C0 8.0809 2.25788 10.4116 5.04311 10.4116Z" fill="#073C64"/>
<path d="M2.10543 4.69296C2.84407 5.22321 3.23037 5.31524 3.86712 6.42394C4.50388 7.53265 4.61425 8.28639 4.78405 8.42224C4.94961 8.56247 5.79013 8.38718 6.22737 8.14616C6.6646 7.90514 6.67734 7.76929 7.08487 6.78767C7.64946 5.42479 8.56639 3.75516 9.26682 2.78668C9.9715 1.81821 11.453 0.542979 11.5209 0.301956C11.5889 0.0609325 10.8842 -0.0530054 10.2135 0.15296C9.54274 0.358925 8.12915 1.96282 7.28014 3.22491C6.33349 4.62722 5.99814 5.81043 5.82834 5.77537C5.66278 5.74031 5.33166 5.03477 4.86471 4.51767C4.39351 4.00056 3.90108 3.6456 3.33225 3.75078C2.75917 3.85595 1.76583 4.44755 2.10543 4.69296Z" fill="white"/>
</svg>
