<svg width="195" height="62" viewBox="0 0 195 62" fill="none" xmlns="http://www.w3.org/2000/svg">
<rect x="24" y="6" width="169" height="50" rx="25" fill="url(#paint0_linear_153_10899)"/>
<rect x="22.5" y="4.5" width="172" height="53" rx="26.5" stroke="white"/>
<path d="M81.3807 20.2727C81.3807 21.2914 81.1899 22.1639 80.8082 22.8903C80.4297 23.6135 79.9126 24.1675 79.2571 24.5522C78.6046 24.9369 77.8645 25.1293 77.0366 25.1293C76.2087 25.1293 75.467 24.9369 74.8114 24.5522C74.159 24.1644 73.6419 23.6089 73.2603 22.8857C72.8817 22.1593 72.6925 21.2884 72.6925 20.2727C72.6925 19.254 72.8817 18.383 73.2603 17.6598C73.6419 16.9335 74.159 16.378 74.8114 15.9933C75.467 15.6085 76.2087 15.4162 77.0366 15.4162C77.8645 15.4162 78.6046 15.6085 79.2571 15.9933C79.9126 16.378 80.4297 16.9335 80.8082 17.6598C81.1899 18.383 81.3807 19.254 81.3807 20.2727ZM79.6587 20.2727C79.6587 19.5556 79.5464 18.9509 79.3217 18.4585C79.1001 17.9629 78.7924 17.589 78.3984 17.3366C78.0045 17.0812 77.5505 16.9535 77.0366 16.9535C76.5226 16.9535 76.0687 17.0812 75.6747 17.3366C75.2808 17.589 74.9715 17.9629 74.7468 18.4585C74.5252 18.9509 74.4144 19.5556 74.4144 20.2727C74.4144 20.9898 74.5252 21.5961 74.7468 22.0916C74.9715 22.584 75.2808 22.958 75.6747 23.2134C76.0687 23.4658 76.5226 23.592 77.0366 23.592C77.5505 23.592 78.0045 23.4658 78.3984 23.2134C78.7924 22.958 79.1001 22.584 79.3217 22.0916C79.5464 21.5961 79.6587 20.9898 79.6587 20.2727ZM84.5972 20.8452V25H82.926V17.9091H84.5233V19.114H84.6064C84.7696 18.717 85.0296 18.4015 85.3866 18.1676C85.7467 17.9337 86.1914 17.8168 86.7208 17.8168C87.2101 17.8168 87.6364 17.9214 87.9996 18.1307C88.3658 18.34 88.6489 18.6431 88.849 19.0401C89.0521 19.4371 89.1521 19.9188 89.1491 20.4851V25H87.4779V20.7436C87.4779 20.2696 87.3548 19.8988 87.1086 19.631C86.8654 19.3633 86.5284 19.2294 86.0976 19.2294C85.8052 19.2294 85.5451 19.294 85.3174 19.4233C85.0927 19.5495 84.9157 19.7326 84.7865 19.9727C84.6603 20.2127 84.5972 20.5036 84.5972 20.8452ZM92.5191 15.5455V25H90.8479V15.5455H92.5191ZM94.2376 25V17.9091H95.9087V25H94.2376ZM95.0778 16.9027C94.8131 16.9027 94.5853 16.815 94.3945 16.6396C94.2037 16.4611 94.1083 16.2472 94.1083 15.9979C94.1083 15.7455 94.2037 15.5316 94.3945 15.3562C94.5853 15.1777 94.8131 15.0884 95.0778 15.0884C95.3455 15.0884 95.5733 15.1777 95.761 15.3562C95.9518 15.5316 96.0472 15.7455 96.0472 15.9979C96.0472 16.2472 95.9518 16.4611 95.761 16.6396C95.5733 16.815 95.3455 16.9027 95.0778 16.9027ZM99.2984 20.8452V25H97.6272V17.9091H99.2245V19.114H99.3076C99.4707 18.717 99.7308 18.4015 100.088 18.1676C100.448 17.9337 100.893 17.8168 101.422 17.8168C101.911 17.8168 102.338 17.9214 102.701 18.1307C103.067 18.34 103.35 18.6431 103.55 19.0401C103.753 19.4371 103.853 19.9188 103.85 20.4851V25H102.179V20.7436C102.179 20.2696 102.056 19.8988 101.81 19.631C101.567 19.3633 101.23 19.2294 100.799 19.2294C100.506 19.2294 100.246 19.294 100.019 19.4233C99.7939 19.5495 99.6169 19.7326 99.4877 19.9727C99.3615 20.2127 99.2984 20.5036 99.2984 20.8452ZM108.688 25.1385C107.977 25.1385 107.363 24.9908 106.846 24.6953C106.332 24.3968 105.937 23.9751 105.66 23.4304C105.383 22.8826 105.244 22.2378 105.244 21.4961C105.244 20.7667 105.383 20.1265 105.66 19.5756C105.94 19.0217 106.331 18.5908 106.832 18.283C107.334 17.9722 107.924 17.8168 108.601 17.8168C109.038 17.8168 109.45 17.8875 109.838 18.0291C110.229 18.1676 110.573 18.383 110.872 18.6754C111.174 18.9678 111.41 19.3402 111.583 19.7926C111.755 20.242 111.841 20.7775 111.841 21.3991V21.9116H106.029V20.7852H110.239C110.236 20.4651 110.167 20.1804 110.032 19.9311C109.896 19.6787 109.707 19.4802 109.464 19.3356C109.224 19.1909 108.944 19.1186 108.624 19.1186C108.282 19.1186 107.982 19.2017 107.723 19.3679C107.465 19.531 107.263 19.7464 107.119 20.0142C106.977 20.2789 106.905 20.5697 106.902 20.8867V21.87C106.902 22.2824 106.977 22.6364 107.128 22.9318C107.279 23.2242 107.49 23.4489 107.76 23.6058C108.031 23.7597 108.348 23.8366 108.711 23.8366C108.955 23.8366 109.175 23.8028 109.372 23.7351C109.569 23.6643 109.739 23.5612 109.884 23.4258C110.029 23.2904 110.138 23.1226 110.212 22.9226L111.772 23.098C111.674 23.5104 111.486 23.8705 111.209 24.1783C110.935 24.483 110.584 24.7199 110.156 24.8892C109.729 25.0554 109.239 25.1385 108.688 25.1385Z" fill="white"/>
<path d="M73.1449 44V34.5455H76.3395C77.0781 34.5455 77.6844 34.6716 78.1584 34.924C78.6323 35.1733 78.9832 35.5165 79.2109 35.9535C79.4387 36.3905 79.5526 36.8875 79.5526 37.4446C79.5526 38.0017 79.4387 38.4956 79.2109 38.9265C78.9832 39.3574 78.6339 39.6959 78.163 39.9421C77.6921 40.1853 77.0904 40.3068 76.358 40.3068H73.7727V39.2727H76.321C76.8258 39.2727 77.232 39.1989 77.5398 39.0511C77.8506 38.9034 78.0753 38.6941 78.2138 38.4233C78.3554 38.1494 78.4261 37.8232 78.4261 37.4446C78.4261 37.0661 78.3554 36.7352 78.2138 36.4521C78.0722 36.1689 77.846 35.9504 77.5352 35.7965C77.2243 35.6396 76.8134 35.5611 76.3026 35.5611H74.2898V44H73.1449ZM77.5952 39.7528L79.9219 44H78.5923L76.3026 39.7528H77.5952ZM84.2094 44.1477C83.5262 44.1477 82.9368 43.9969 82.4413 43.6953C81.9489 43.3906 81.5688 42.9659 81.301 42.4212C81.0364 41.8733 80.904 41.2363 80.904 40.5099C80.904 39.7836 81.0364 39.1435 81.301 38.5895C81.5688 38.0324 81.9412 37.5985 82.4182 37.2876C82.8983 36.9737 83.4585 36.8168 84.0986 36.8168C84.468 36.8168 84.8327 36.8783 85.1927 37.0014C85.5528 37.1245 85.8806 37.3246 86.176 37.6016C86.4715 37.8755 86.7069 38.2386 86.8824 38.6911C87.0578 39.1435 87.1455 39.7005 87.1455 40.3622V40.8239H81.6796V39.8821H86.0376C86.0376 39.482 85.9575 39.125 85.7975 38.8111C85.6405 38.4972 85.4159 38.2494 85.1235 38.0678C84.8342 37.8862 84.4926 37.7955 84.0986 37.7955C83.6647 37.7955 83.2892 37.9032 82.9722 38.1186C82.6583 38.331 82.4167 38.608 82.2474 38.9496C82.0782 39.2912 81.9935 39.6574 81.9935 40.0483V40.6761C81.9935 41.2116 82.0858 41.6656 82.2705 42.038C82.4582 42.4073 82.7183 42.6889 83.0507 42.8828C83.3831 43.0736 83.7693 43.169 84.2094 43.169C84.4957 43.169 84.7542 43.129 84.985 43.049C85.2189 42.9659 85.4205 42.8428 85.5898 42.6797C85.759 42.5135 85.8898 42.3073 85.9822 42.0611L87.0347 42.3565C86.9239 42.7135 86.7377 43.0275 86.4761 43.2983C86.2145 43.5661 85.8914 43.7753 85.5067 43.9261C85.122 44.0739 84.6895 44.1477 84.2094 44.1477ZM91.665 46.8068C91.1388 46.8068 90.6863 46.7391 90.3078 46.6037C89.9292 46.4714 89.6138 46.2959 89.3614 46.0774C89.1121 45.862 88.9136 45.6312 88.7659 45.3849L89.6338 44.7756C89.7323 44.9048 89.8569 45.0526 90.0077 45.2188C90.1585 45.388 90.3647 45.5342 90.6263 45.6573C90.891 45.7835 91.2372 45.8466 91.665 45.8466C92.2375 45.8466 92.7099 45.7081 93.0823 45.4311C93.4547 45.1541 93.6409 44.7202 93.6409 44.1293V42.6889H93.5486C93.4685 42.8182 93.3547 42.9782 93.2069 43.169C93.0623 43.3568 92.853 43.5245 92.5791 43.6722C92.3083 43.8169 91.942 43.8892 91.4804 43.8892C90.9079 43.8892 90.394 43.7538 89.9385 43.483C89.4861 43.2121 89.1275 42.8182 88.8628 42.3011C88.6012 41.7841 88.4704 41.1562 88.4704 40.4176C88.4704 39.6913 88.5982 39.0588 88.8536 38.5202C89.109 37.9786 89.4645 37.56 89.92 37.2646C90.3755 36.966 90.9018 36.8168 91.4988 36.8168C91.9605 36.8168 92.3267 36.8937 92.5976 37.0476C92.8715 37.1984 93.0808 37.3707 93.2254 37.5646C93.3731 37.7554 93.487 37.9124 93.567 38.0355H93.6778V36.9091H94.7304V44.2031C94.7304 44.8125 94.5919 45.308 94.3149 45.6896C94.041 46.0743 93.6717 46.3559 93.2069 46.5344C92.7453 46.716 92.2313 46.8068 91.665 46.8068ZM91.6281 42.9105C92.0651 42.9105 92.4345 42.8105 92.7361 42.6104C93.0377 42.4104 93.267 42.1226 93.4239 41.7472C93.5809 41.3717 93.6594 40.9223 93.6594 40.3991C93.6594 39.8883 93.5824 39.4374 93.4285 39.0465C93.2747 38.6557 93.0469 38.3494 92.7453 38.1278C92.4437 37.9062 92.0713 37.7955 91.6281 37.7955C91.1665 37.7955 90.7818 37.9124 90.474 38.1463C90.1693 38.3802 89.94 38.6941 89.7861 39.0881C89.6353 39.482 89.5599 39.919 89.5599 40.3991C89.5599 40.8916 89.6369 41.3271 89.7907 41.7056C89.9477 42.0811 90.1785 42.3765 90.4832 42.592C90.791 42.8043 91.1726 42.9105 91.6281 42.9105ZM96.7247 44V36.9091H97.8142V44H96.7247ZM97.2787 35.7273C97.0663 35.7273 96.8832 35.6549 96.7293 35.5103C96.5785 35.3656 96.5031 35.1918 96.5031 34.9886C96.5031 34.7855 96.5785 34.6116 96.7293 34.467C96.8832 34.3223 97.0663 34.25 97.2787 34.25C97.491 34.25 97.6726 34.3223 97.8234 34.467C97.9773 34.6116 98.0542 34.7855 98.0542 34.9886C98.0542 35.1918 97.9773 35.3656 97.8234 35.5103C97.6726 35.6549 97.491 35.7273 97.2787 35.7273ZM104.832 38.4972L103.854 38.7741C103.792 38.611 103.701 38.4525 103.581 38.2987C103.464 38.1417 103.304 38.0124 103.101 37.9109C102.898 37.8093 102.638 37.7585 102.321 37.7585C101.887 37.7585 101.525 37.8585 101.236 38.0586C100.95 38.2556 100.807 38.5064 100.807 38.8111C100.807 39.0819 100.905 39.2958 101.102 39.4528C101.299 39.6097 101.607 39.7405 102.026 39.8452L103.078 40.1037C103.712 40.2576 104.185 40.493 104.495 40.81C104.806 41.1239 104.962 41.5286 104.962 42.0241C104.962 42.4304 104.845 42.7936 104.611 43.1136C104.38 43.4337 104.057 43.6861 103.641 43.8707C103.226 44.0554 102.743 44.1477 102.192 44.1477C101.469 44.1477 100.87 43.9908 100.396 43.6768C99.922 43.3629 99.6219 42.9044 99.4957 42.3011L100.53 42.0426C100.628 42.4242 100.815 42.7105 101.088 42.9013C101.365 43.0921 101.727 43.1875 102.173 43.1875C102.681 43.1875 103.084 43.0798 103.383 42.8643C103.684 42.6458 103.835 42.3842 103.835 42.0795C103.835 41.8333 103.749 41.6271 103.577 41.4609C103.404 41.2917 103.14 41.1655 102.783 41.0824L101.601 40.8054C100.951 40.6515 100.474 40.413 100.17 40.0898C99.8681 39.7636 99.7173 39.3558 99.7173 38.8665C99.7173 38.4664 99.8297 38.1125 100.054 37.8047C100.282 37.4969 100.591 37.2553 100.982 37.0799C101.376 36.9045 101.822 36.8168 102.321 36.8168C103.023 36.8168 103.574 36.9706 103.974 37.2784C104.377 37.5862 104.663 37.9924 104.832 38.4972ZM109.685 36.9091V37.8324H106.011V36.9091H109.685ZM107.082 35.2102H108.171V41.9688C108.171 42.2765 108.216 42.5073 108.305 42.6612C108.397 42.812 108.514 42.9136 108.656 42.9659C108.801 43.0152 108.953 43.0398 109.113 43.0398C109.233 43.0398 109.332 43.0336 109.408 43.0213C109.485 43.0059 109.547 42.9936 109.593 42.9844L109.815 43.9631C109.741 43.9908 109.638 44.0185 109.505 44.0462C109.373 44.0769 109.205 44.0923 109.002 44.0923C108.694 44.0923 108.393 44.0262 108.097 43.8938C107.805 43.7615 107.562 43.5599 107.368 43.2891C107.177 43.0182 107.082 42.6766 107.082 42.2642V35.2102ZM111.324 44V36.9091H112.377V37.9801H112.451C112.58 37.6293 112.814 37.3446 113.152 37.1261C113.491 36.9076 113.873 36.7983 114.297 36.7983C114.377 36.7983 114.477 36.7998 114.597 36.8029C114.717 36.806 114.808 36.8106 114.87 36.8168V37.9247C114.833 37.9155 114.748 37.9016 114.616 37.8832C114.487 37.8616 114.35 37.8509 114.205 37.8509C113.86 37.8509 113.553 37.9232 113.282 38.0678C113.014 38.2094 112.802 38.4064 112.645 38.6587C112.491 38.908 112.414 39.1927 112.414 39.5128V44H111.324ZM118.248 44.1662C117.799 44.1662 117.391 44.0816 117.025 43.9123C116.658 43.7399 116.367 43.4922 116.152 43.169C115.937 42.8428 115.829 42.4489 115.829 41.9872C115.829 41.581 115.909 41.2517 116.069 40.9993C116.229 40.7438 116.443 40.5438 116.711 40.3991C116.978 40.2545 117.274 40.1468 117.597 40.076C117.923 40.0021 118.251 39.9437 118.58 39.9006C119.011 39.8452 119.36 39.8036 119.628 39.7759C119.899 39.7451 120.096 39.6944 120.219 39.6236C120.345 39.5528 120.408 39.4297 120.408 39.2543V39.2173C120.408 38.7618 120.284 38.4079 120.034 38.1555C119.788 37.9032 119.414 37.777 118.913 37.777C118.393 37.777 117.985 37.8909 117.689 38.1186C117.394 38.3464 117.186 38.5895 117.066 38.848L116.032 38.4787C116.217 38.0478 116.463 37.7124 116.771 37.4723C117.081 37.2292 117.42 37.0599 117.786 36.9645C118.156 36.866 118.519 36.8168 118.876 36.8168C119.103 36.8168 119.365 36.8445 119.661 36.8999C119.959 36.9522 120.247 37.0614 120.524 37.2276C120.804 37.3938 121.036 37.6446 121.221 37.9801C121.406 38.3156 121.498 38.7649 121.498 39.3281V44H120.408V43.0398H120.353C120.279 43.1937 120.156 43.3583 119.984 43.5337C119.811 43.7092 119.582 43.8584 119.296 43.9815C119.01 44.1046 118.66 44.1662 118.248 44.1662ZM118.414 43.1875C118.845 43.1875 119.208 43.1029 119.504 42.9336C119.802 42.7643 120.027 42.5458 120.178 42.2781C120.331 42.0103 120.408 41.7287 120.408 41.4332V40.4361C120.362 40.4915 120.261 40.5423 120.104 40.5884C119.95 40.6315 119.771 40.67 119.568 40.7038C119.368 40.7346 119.173 40.7623 118.982 40.7869C118.794 40.8085 118.642 40.8269 118.525 40.8423C118.242 40.8793 117.977 40.9393 117.731 41.0224C117.488 41.1024 117.291 41.224 117.14 41.3871C116.992 41.5471 116.918 41.7656 116.918 42.0426C116.918 42.4212 117.058 42.7074 117.338 42.9013C117.622 43.0921 117.98 43.1875 118.414 43.1875ZM126.57 36.9091V37.8324H122.896V36.9091H126.57ZM123.967 35.2102H125.056V41.9688C125.056 42.2765 125.101 42.5073 125.19 42.6612C125.282 42.812 125.399 42.9136 125.541 42.9659C125.685 43.0152 125.838 43.0398 125.998 43.0398C126.118 43.0398 126.216 43.0336 126.293 43.0213C126.37 43.0059 126.432 42.9936 126.478 42.9844L126.699 43.9631C126.626 43.9908 126.523 44.0185 126.39 44.0462C126.258 44.0769 126.09 44.0923 125.887 44.0923C125.579 44.0923 125.278 44.0262 124.982 43.8938C124.69 43.7615 124.447 43.5599 124.253 43.2891C124.062 43.0182 123.967 42.6766 123.967 42.2642V35.2102ZM128.209 44V36.9091H129.299V44H128.209ZM128.763 35.7273C128.551 35.7273 128.368 35.6549 128.214 35.5103C128.063 35.3656 127.987 35.1918 127.987 34.9886C127.987 34.7855 128.063 34.6116 128.214 34.467C128.368 34.3223 128.551 34.25 128.763 34.25C128.975 34.25 129.157 34.3223 129.308 34.467C129.462 34.6116 129.539 34.7855 129.539 34.9886C129.539 35.1918 129.462 35.3656 129.308 35.5103C129.157 35.6549 128.975 35.7273 128.763 35.7273ZM134.175 44.1477C133.535 44.1477 132.973 43.9954 132.49 43.6907C132.01 43.386 131.634 42.9598 131.363 42.4119C131.096 41.8641 130.962 41.224 130.962 40.4915C130.962 39.7528 131.096 39.1081 131.363 38.5572C131.634 38.0063 132.01 37.5785 132.49 37.2738C132.973 36.9691 133.535 36.8168 134.175 36.8168C134.815 36.8168 135.375 36.9691 135.855 37.2738C136.338 37.5785 136.714 38.0063 136.982 38.5572C137.252 39.1081 137.388 39.7528 137.388 40.4915C137.388 41.224 137.252 41.8641 136.982 42.4119C136.714 42.9598 136.338 43.386 135.855 43.6907C135.375 43.9954 134.815 44.1477 134.175 44.1477ZM134.175 43.169C134.661 43.169 135.061 43.0444 135.375 42.7951C135.689 42.5458 135.921 42.218 136.072 41.8118C136.223 41.4055 136.298 40.9654 136.298 40.4915C136.298 40.0175 136.223 39.5759 136.072 39.1665C135.921 38.7572 135.689 38.4264 135.375 38.174C135.061 37.9216 134.661 37.7955 134.175 37.7955C133.688 37.7955 133.288 37.9216 132.974 38.174C132.661 38.4264 132.428 38.7572 132.277 39.1665C132.127 39.5759 132.051 40.0175 132.051 40.4915C132.051 40.9654 132.127 41.4055 132.277 41.8118C132.428 42.218 132.661 42.5458 132.974 42.7951C133.288 43.0444 133.688 43.169 134.175 43.169ZM140.14 39.7344V44H139.051V36.9091H140.103V38.017H140.196C140.362 37.657 140.614 37.3677 140.953 37.1491C141.291 36.9276 141.728 36.8168 142.264 36.8168C142.744 36.8168 143.164 36.9152 143.524 37.1122C143.884 37.3061 144.164 37.6016 144.364 37.9986C144.564 38.3925 144.665 38.8911 144.665 39.4943V44H143.575V39.5682C143.575 39.0111 143.43 38.5772 143.141 38.2663C142.852 37.9524 142.455 37.7955 141.95 37.7955C141.602 37.7955 141.291 37.8709 141.017 38.0217C140.747 38.1725 140.533 38.3925 140.376 38.6818C140.219 38.9711 140.14 39.322 140.14 39.7344Z" fill="white"/>
<circle cx="31" cy="31" r="30.5" fill="white" stroke="white"/>
<path d="M51.3081 51.3062C62.5024 40.1094 62.5024 21.8885 51.3081 10.6917C40.1109 -0.502144 21.8922 -0.502144 10.6921 10.6917C-0.502188 21.8885 -0.502188 40.1094 10.6921 51.3062C21.8922 62.5029 40.1109 62.5029 51.3081 51.3062ZM20.8497 20.8461H41.1534L33.0319 28.9701L43.1837 39.1244L39.123 43.185L28.9712 33.0307L20.8497 41.1547V20.8461V20.8461Z" fill="url(#paint1_linear_153_10899)"/>
<defs>
<linearGradient id="paint0_linear_153_10899" x1="108.5" y1="6" x2="108.5" y2="56" gradientUnits="userSpaceOnUse">
<stop stop-color="#55ACEE"/>
<stop offset="1" stop-color="#1E97F3"/>
</linearGradient>
<linearGradient id="paint1_linear_153_10899" x1="31.0001" y1="2.29633" x2="31.0001" y2="59.7037" gradientUnits="userSpaceOnUse">
<stop stop-color="#1E97F3"/>
<stop offset="1" stop-color="#55ACEE"/>
</linearGradient>
</defs>
</svg>
