<svg width="28" height="20" viewBox="0 0 28 20" fill="none" xmlns="http://www.w3.org/2000/svg">
<path d="M27.9994 3.61667C28.002 3.28888 27.9083 2.96692 27.7289 2.68715C27.5496 2.40737 27.2917 2.18091 26.9844 2.03333C26.6931 1.88434 26.3634 1.81701 26.0335 1.83913C25.7037 1.86126 25.3872 1.97193 25.1207 2.15833L20.9995 4.66667V1.66667C20.9995 1.22464 20.8151 0.800716 20.487 0.488155C20.1588 0.175595 19.7137 0 19.2496 0H3.49992C2.57168 0 1.68147 0.351189 1.0251 0.976311C0.368741 1.60143 0 2.44928 0 3.33333V16.6667C0 17.5507 0.368741 18.3986 1.0251 19.0237C1.68147 19.6488 2.57168 20 3.49992 20H19.2496C19.7137 20 20.1588 19.8244 20.487 19.5118C20.8151 19.1993 20.9995 18.7754 20.9995 18.3333V15.3333L25.0594 17.8333C25.331 18.0314 25.6559 18.1522 25.9966 18.1817C26.3373 18.2112 26.6797 18.1482 26.9844 18C27.2971 17.85 27.5586 17.6183 27.7383 17.332C27.9181 17.0458 28.0086 16.7167 27.9994 16.3833V3.61667ZM26.1882 16.475C26.1357 16.475 26.0919 16.475 26.0219 16.425L19.2496 12.3083V18.3333H3.49992C3.0358 18.3333 2.59069 18.1577 2.26251 17.8452C1.93433 17.5326 1.74996 17.1087 1.74996 16.6667V3.33333C1.74996 2.89131 1.93433 2.46738 2.26251 2.15482C2.59069 1.84226 3.0358 1.66667 3.49992 1.66667H19.2496V7.69167L26.0744 3.525C26.0909 3.51349 26.1108 3.50728 26.1313 3.50728C26.1517 3.50728 26.1716 3.51349 26.1882 3.525C26.2073 3.53206 26.2236 3.54477 26.2346 3.56126C26.2456 3.57775 26.2508 3.59716 26.2494 3.61667V16.3833C26.2508 16.4028 26.2456 16.4222 26.2346 16.4387C26.2236 16.4552 26.2073 16.4679 26.1882 16.475Z" fill="#073C64"/>
</svg>
