<svg width="25" height="25" viewBox="0 0 25 25" fill="none" xmlns="http://www.w3.org/2000/svg">
<path d="M21.8751 8.33333C22.4276 8.33333 22.9575 8.55282 23.3482 8.94353C23.7389 9.33423 23.9584 9.86413 23.9584 10.4167V14.5833C23.9584 15.1359 23.7389 15.6658 23.3482 16.0565C22.9575 16.4472 22.4276 16.6667 21.8751 16.6667H20.7688C20.5149 18.6805 19.5347 20.5325 18.0123 21.875C16.4899 23.2175 14.5299 23.9583 12.5001 23.9583V21.875C14.1577 21.875 15.7474 21.2165 16.9195 20.0444C18.0916 18.8723 18.7501 17.2826 18.7501 15.625V9.375C18.7501 7.71739 18.0916 6.12768 16.9195 4.95558C15.7474 3.78348 14.1577 3.125 12.5001 3.125C10.8425 3.125 9.25277 3.78348 8.08066 4.95558C6.90856 6.12768 6.25008 7.71739 6.25008 9.375V16.6667H3.12508C2.57255 16.6667 2.04264 16.4472 1.65194 16.0565C1.26124 15.6658 1.04175 15.1359 1.04175 14.5833V10.4167C1.04175 9.86413 1.26124 9.33423 1.65194 8.94353C2.04264 8.55282 2.57255 8.33333 3.12508 8.33333H4.23133C4.48553 6.31968 5.46579 4.46799 6.98818 3.1257C8.51057 1.78341 10.4704 1.04279 12.5001 1.04279C14.5297 1.04279 16.4896 1.78341 18.012 3.1257C19.5344 4.46799 20.5146 6.31968 20.7688 8.33333H21.8751ZM8.08341 16.4427L9.18758 14.676C10.1804 15.2979 11.3286 15.6269 12.5001 15.625C13.6716 15.6269 14.8198 15.2979 15.8126 14.676L16.9167 16.4427C15.5931 17.272 14.0621 17.7107 12.5001 17.7083C10.9381 17.7107 9.4071 17.272 8.08341 16.4427Z" fill="#0085FF"/>
</svg>
