<svg width="27" height="22" viewBox="0 0 27 22" fill="none" xmlns="http://www.w3.org/2000/svg">
<path d="M23.1979 8.56381V13.2509M25.5126 12.4054L23.1723 13.2695V20.1074C23.1936 20.3225 23.1258 20.537 22.9839 20.7037C22.842 20.8704 22.6376 20.9757 22.4157 20.9963C22.1938 21.0169 21.9725 20.9512 21.8005 20.8136C21.6286 20.6761 21.5201 20.4779 21.4988 20.2628C21.4921 20.2112 21.4921 20.159 21.4988 20.1074V19.722C18.0429 17.5412 14.1481 16.0982 10.0728 15.4887L10.3229 16.2409C10.3605 16.3907 10.3394 16.5487 10.2635 16.6843C10.1877 16.8199 10.0626 16.9232 9.91253 16.9744C9.8552 16.9834 9.79674 16.9834 9.73941 16.9744H9.34187L10.169 19.6598C10.2063 19.8104 10.1842 19.9691 10.1071 20.1048C10.0301 20.2405 9.90348 20.3434 9.75223 20.3933C9.69474 20.4001 9.63661 20.4001 9.57911 20.3933H6.9823C6.85636 20.3951 6.73335 20.3564 6.63245 20.2833C6.53155 20.2102 6.45842 20.1068 6.42447 19.9893L4.94332 15.1779H3.53271C3.1926 15.1779 2.86643 15.0469 2.62593 14.8137C2.38544 14.5806 2.25033 14.2644 2.25033 13.9346V13.3627C1.92828 13.3711 1.61592 13.2555 1.3816 13.0411C1.14728 12.8268 1.01008 12.5311 1.00002 12.219V9.57706C0.998305 9.26323 1.12482 8.96151 1.35191 8.73786C1.57899 8.51421 1.88817 8.38682 2.21186 8.38354V8.38354V7.83029C2.21186 7.50056 2.34697 7.18434 2.58746 6.95119C2.82795 6.71803 3.15413 6.58705 3.49424 6.58705H7.23236C12.3619 6.58705 17.9979 4.43001 21.518 2.14244V1.71973C21.5434 1.52109 21.6428 1.33828 21.7975 1.20572C21.9522 1.07316 22.1515 1 22.358 1C22.5644 1 22.7638 1.07316 22.9185 1.20572C23.0732 1.33828 23.1726 1.52109 23.1979 1.71973V8.55759L25.5383 9.42165C25.6745 9.47398 25.7913 9.56478 25.8736 9.68228C25.956 9.79977 26 9.93854 25.9999 10.0806V11.7279C26.002 11.876 25.9561 12.0211 25.8686 12.1426C25.7812 12.2641 25.6567 12.3561 25.5126 12.4054V12.4054Z" stroke="#073C64" stroke-width="1.5" stroke-linecap="round" stroke-linejoin="round"/>
<path d="M4.95605 15.1779C6.67014 15.1454 8.38441 15.2326 10.0856 15.439" stroke="#073C64" stroke-linecap="round" stroke-linejoin="round"/>
</svg>
