<svg width="25" height="25" viewBox="0 0 25 25" fill="none" xmlns="http://www.w3.org/2000/svg">
<g clip-path="url(#clip0_153_10884)">
<path d="M12.5 24.9996C19.4036 24.9996 25 19.4031 25 12.4996C25 5.59601 19.4036 -0.000427246 12.5 -0.000427246C5.59644 -0.000427246 0 5.59601 0 12.4996C0 19.4031 5.59644 24.9996 12.5 24.9996Z" fill="#DC4E41"/>
<path d="M4.35204 12.6136C4.3077 14.7643 5.78904 16.8167 7.82676 17.4861C9.74617 18.131 12.1061 17.6485 13.3833 16.0048C14.3159 14.853 14.5278 13.3175 14.4268 11.883C12.783 11.8683 11.1393 11.8732 9.49795 11.8756C9.49527 12.4612 9.49795 13.0445 9.5004 13.6301C10.4846 13.6573 11.4691 13.6448 12.4533 13.6647C12.2048 14.5161 11.6388 15.3084 10.7799 15.6159C9.12137 16.3468 7.00521 15.392 6.48336 13.6522C5.85343 11.9861 6.88466 9.97559 8.58726 9.49095C9.64301 9.1195 10.7306 9.53774 11.6339 10.0866C12.0916 9.65829 12.5199 9.20061 12.9406 8.73802C11.9143 7.87926 10.5954 7.35272 9.23947 7.46837C6.57917 7.50001 4.2511 9.95598 4.35204 12.6136V12.6136ZM17.6259 10.3987C17.621 10.8885 17.6159 11.3807 17.6134 11.8703C17.1212 11.8752 16.6317 11.8776 16.1419 11.8801V13.3467C16.6317 13.3492 17.1239 13.3516 17.6134 13.3567C17.6183 13.8465 17.6183 14.336 17.6232 14.8283C18.1106 14.8283 18.6003 14.8258 19.0899 14.8283C19.0925 14.336 19.0948 13.8465 19.0999 13.3543L20.5714 13.3469V11.8803C20.0819 11.8778 19.5897 11.8754 19.0999 11.8705C19.0972 11.3807 19.0925 10.8885 19.0899 10.399L17.6259 10.3987Z" fill="#DC4E41"/>
<path d="M4.35204 12.6136C4.2511 9.95602 6.57895 7.50005 9.23925 7.46818C10.5951 7.35254 11.9143 7.87907 12.9404 8.73784C12.5194 9.20064 12.0912 9.6581 11.6337 10.0864C10.7304 9.53755 9.64278 9.11931 8.58704 9.49076C6.88422 9.97563 5.85299 11.9862 6.48313 13.652C7.00499 15.3918 9.12115 16.3466 10.7796 15.6158C11.6384 15.3083 12.2046 14.5159 12.453 13.6645C11.4688 13.6449 10.4844 13.6571 9.50018 13.6299C9.49773 13.0444 9.49528 12.461 9.49773 11.8754C11.1391 11.873 12.7828 11.8681 14.4266 11.8828C14.5275 13.3175 14.3159 14.853 13.3831 16.0046C12.1059 17.6484 9.74618 18.1308 7.82654 17.4859C5.78926 16.8168 4.3077 14.7643 4.35204 12.6136V12.6136ZM17.6259 10.3988H19.0899C19.0925 10.8885 19.0972 11.3808 19.0999 11.8703C19.5894 11.8752 20.0817 11.8777 20.5714 11.8801V13.3467L19.0999 13.3541C19.095 13.8463 19.0925 14.3359 19.0899 14.8281C18.6003 14.8256 18.1103 14.8281 17.6232 14.8281C17.6186 14.3359 17.6186 13.8463 17.6134 13.3565C17.1239 13.3514 16.6317 13.3492 16.1419 13.3465V11.8799C16.6317 11.8774 17.1214 11.875 17.6134 11.8701C17.6159 11.3808 17.6208 10.8885 17.6259 10.3988V10.3988Z" fill="white"/>
</g>
<defs>
<clipPath id="clip0_153_10884">
<rect width="25" height="25" fill="white"/>
</clipPath>
</defs>
</svg>
