<svg width="78" height="54" viewBox="0 0 78 54" fill="none" xmlns="http://www.w3.org/2000/svg">
<g clip-path="url(#clip0_240_10)">
<path d="M76.2771 8.4225C75.8297 6.79457 74.957 5.31043 73.7459 4.11788C72.5347 2.92534 71.0275 2.06598 69.3741 1.6254C63.3212 0 38.9602 0 38.9602 0C38.9602 0 14.598 0.0491999 8.54508 1.6746C6.89169 2.11521 5.38438 2.97461 4.17325 4.16721C2.96212 5.35982 2.08943 6.84401 1.64208 8.472C-0.188787 19.0614 -0.899014 35.1972 1.69235 45.363C2.13975 46.9909 3.01246 48.4751 4.22359 49.6676C5.43472 50.8602 6.942 51.7195 8.59535 52.1601C14.6483 53.7855 39.0099 53.7855 39.0099 53.7855C39.0099 53.7855 63.3712 53.7855 69.4238 52.1601C71.0772 51.7196 72.5845 50.8602 73.7957 49.6677C75.0069 48.4751 75.8797 46.991 76.3271 45.363C78.2582 34.7586 78.8532 18.633 76.2771 8.4228V8.4225Z" fill="#FF0000"/>
<path d="M31.2063 38.418L51.4156 26.8926L31.2063 15.3672V38.418Z" fill="white"/>
</g>
<defs>
<clipPath id="clip0_240_10">
<rect width="78" height="54" fill="white"/>
</clipPath>
</defs>
</svg>
